<svg xmlns="http://www.w3.org/2000/svg" xmlns:xlink="http://www.w3.org/1999/xlink" width="394pt" height="400pt" viewBox="0.00 0.00 393.88 400.00">
<g id="graph0" class="graph" transform="scale(1 1) rotate(0) translate(4 396)">
<title>Tree</title>
<polygon fill="white" stroke="none" points="-4,4 -4,-396 389.88,-396 389.88,4 -4,4"/>
<!-- 0 -->
<g id="node1" class="node">
<title>0</title>
<polygon fill="#f8e0ce" stroke="black" points="274.98,-392 28.67,-392 28.67,-316.8 274.98,-316.8 274.98,-392"/>
<text text-anchor="middle" x="151.82" y="-375.4" font-family="Helvetica,sans-Serif" font-size="14.00">Потраченные_деньги_много &lt;= 0.5</text>
<text text-anchor="middle" x="151.82" y="-358.6" font-family="Helvetica,sans-Serif" font-size="14.00">entropy = 0.985</text>
<text text-anchor="middle" x="151.82" y="-341.8" font-family="Helvetica,sans-Serif" font-size="14.00">samples = 7</text>
<text text-anchor="middle" x="151.82" y="-325" font-family="Helvetica,sans-Serif" font-size="14.00">value = [4, 3]</text>
</g>
<!-- 1 -->
<g id="node2" class="node">
<title>1</title>
<polygon fill="#399de5" stroke="black" points="117.88,-272.4 19.77,-272.4 19.77,-214 117.88,-214 117.88,-272.4"/>
<text text-anchor="middle" x="68.82" y="-255.8" font-family="Helvetica,sans-Serif" font-size="14.00">entropy = 0.0</text>
<text text-anchor="middle" x="68.82" y="-239" font-family="Helvetica,sans-Serif" font-size="14.00">samples = 2</text>
<text text-anchor="middle" x="68.82" y="-222.2" font-family="Helvetica,sans-Serif" font-size="14.00">value = [0, 2]</text>
</g>
<!-- 0&#45;&gt;1 -->
<g id="edge1" class="edge">
<title>0-&gt;1</title>
<path fill="none" stroke="black" d="M123.72,-316.43C115.27,-305.31 105.99,-293.1 97.5,-281.93"/>
<polygon fill="black" stroke="black" points="100.35,-279.89 91.51,-274.05 94.78,-284.13 100.35,-279.89"/>
<text text-anchor="middle" x="87.22" y="-293.42" font-family="Helvetica,sans-Serif" font-size="14.00">True</text>
</g>
<!-- 2 -->
<g id="node3" class="node">
<title>2</title>
<polygon fill="#eca06a" stroke="black" points="335.64,-280.8 136.01,-280.8 136.01,-205.6 335.64,-205.6 335.64,-280.8"/>
<text text-anchor="middle" x="235.82" y="-264.2" font-family="Helvetica,sans-Serif" font-size="14.00">Внешность_приятная &lt;= 0.5</text>
<text text-anchor="middle" x="235.82" y="-247.4" font-family="Helvetica,sans-Serif" font-size="14.00">entropy = 0.722</text>
<text text-anchor="middle" x="235.82" y="-230.6" font-family="Helvetica,sans-Serif" font-size="14.00">samples = 5</text>
<text text-anchor="middle" x="235.82" y="-213.8" font-family="Helvetica,sans-Serif" font-size="14.00">value = [4, 1]</text>
</g>
<!-- 0&#45;&gt;2 -->
<g id="edge2" class="edge">
<title>0-&gt;2</title>
<path fill="none" stroke="black" d="M180.26,-316.43C186.76,-307.98 193.75,-298.9 200.5,-290.13"/>
<polygon fill="black" stroke="black" points="203.17,-292.39 206.49,-282.33 197.62,-288.12 203.17,-292.39"/>
<text text-anchor="middle" x="210.65" y="-301.72" font-family="Helvetica,sans-Serif" font-size="14.00">False</text>
</g>
<!-- 3 -->
<g id="node4" class="node">
<title>3</title>
<polygon fill="#ffffff" stroke="black" points="269.65,-169.6 0,-169.6 0,-94.4 269.65,-94.4 269.65,-169.6"/>
<text text-anchor="middle" x="134.82" y="-153" font-family="Helvetica,sans-Serif" font-size="14.00">Уровень_красноречия_высокий &lt;= 0.5</text>
<text text-anchor="middle" x="134.82" y="-136.2" font-family="Helvetica,sans-Serif" font-size="14.00">entropy = 1.0</text>
<text text-anchor="middle" x="134.82" y="-119.4" font-family="Helvetica,sans-Serif" font-size="14.00">samples = 2</text>
<text text-anchor="middle" x="134.82" y="-102.6" font-family="Helvetica,sans-Serif" font-size="14.00">value = [1, 1]</text>
</g>
<!-- 2&#45;&gt;3 -->
<g id="edge3" class="edge">
<title>2-&gt;3</title>
<path fill="none" stroke="black" d="M201.63,-205.23C193.65,-196.6 185.06,-187.32 176.79,-178.37"/>
<polygon fill="black" stroke="black" points="179.37,-176.01 170.01,-171.04 174.23,-180.76 179.37,-176.01"/>
</g>
<!-- 6 -->
<g id="node7" class="node">
<title>6</title>
<polygon fill="#e58139" stroke="black" points="385.88,-161.2 287.77,-161.2 287.77,-102.8 385.88,-102.8 385.88,-161.2"/>
<text text-anchor="middle" x="336.82" y="-144.6" font-family="Helvetica,sans-Serif" font-size="14.00">entropy = 0.0</text>
<text text-anchor="middle" x="336.82" y="-127.8" font-family="Helvetica,sans-Serif" font-size="14.00">samples = 3</text>
<text text-anchor="middle" x="336.82" y="-111" font-family="Helvetica,sans-Serif" font-size="14.00">value = [3, 0]</text>
</g>
<!-- 2&#45;&gt;6 -->
<g id="edge6" class="edge">
<title>2-&gt;6</title>
<path fill="none" stroke="black" d="M270.02,-205.23C280.51,-193.89 292.05,-181.41 302.54,-170.07"/>
<polygon fill="black" stroke="black" points="305.08,-172.48 309.3,-162.76 299.94,-167.72 305.08,-172.48"/>
</g>
<!-- 4 -->
<g id="node5" class="node">
<title>4</title>
<polygon fill="#399de5" stroke="black" points="125.88,-58.4 27.77,-58.4 27.77,0 125.88,0 125.88,-58.4"/>
<text text-anchor="middle" x="76.82" y="-41.8" font-family="Helvetica,sans-Serif" font-size="14.00">entropy = 0.0</text>
<text text-anchor="middle" x="76.82" y="-25" font-family="Helvetica,sans-Serif" font-size="14.00">samples = 1</text>
<text text-anchor="middle" x="76.82" y="-8.2" font-family="Helvetica,sans-Serif" font-size="14.00">value = [0, 1]</text>
</g>
<!-- 3&#45;&gt;4 -->
<g id="edge4" class="edge">
<title>3-&gt;4</title>
<path fill="none" stroke="black" d="M113.56,-94.04C108.78,-85.73 103.69,-76.89 98.88,-68.53"/>
<polygon fill="black" stroke="black" points="101.96,-66.86 93.94,-59.94 95.89,-70.36 101.96,-66.86"/>
</g>
<!-- 5 -->
<g id="node6" class="node">
<title>5</title>
<polygon fill="#e58139" stroke="black" points="241.88,-58.4 143.77,-58.4 143.77,0 241.88,0 241.88,-58.4"/>
<text text-anchor="middle" x="192.82" y="-41.8" font-family="Helvetica,sans-Serif" font-size="14.00">entropy = 0.0</text>
<text text-anchor="middle" x="192.82" y="-25" font-family="Helvetica,sans-Serif" font-size="14.00">samples = 1</text>
<text text-anchor="middle" x="192.82" y="-8.2" font-family="Helvetica,sans-Serif" font-size="14.00">value = [1, 0]</text>
</g>
<!-- 3&#45;&gt;5 -->
<g id="edge5" class="edge">
<title>3-&gt;5</title>
<path fill="none" stroke="black" d="M156.09,-94.04C160.87,-85.73 165.96,-76.89 170.77,-68.53"/>
<polygon fill="black" stroke="black" points="173.76,-70.36 175.71,-59.94 167.69,-66.86 173.76,-70.36"/>
</g>
</g>
</svg>